%TF.GenerationSoftware,KiCad,Pcbnew,(5.0.0)*%
%TF.CreationDate,2018-12-15T00:02:50+01:00*%
%TF.ProjectId,addressable_led_board_V1.0,6164647265737361626C655F6C65645F,rev?*%
%TF.SameCoordinates,Original*%
%TF.FileFunction,Legend,Bot*%
%TF.FilePolarity,Positive*%
%FSLAX46Y46*%
G04 Gerber Fmt 4.6, Leading zero omitted, Abs format (unit mm)*
G04 Created by KiCad (PCBNEW (5.0.0)) date 12/15/18 00:02:50*
%MOMM*%
%LPD*%
G01*
G04 APERTURE LIST*
%ADD10C,0.300000*%
%ADD11C,0.150000*%
%ADD12C,0.120000*%
G04 APERTURE END LIST*
D10*
X17178571Y-36035714D02*
X16464285Y-35535714D01*
X17178571Y-35178571D02*
X15678571Y-35178571D01*
X15678571Y-35750000D01*
X15750000Y-35892857D01*
X15821428Y-35964285D01*
X15964285Y-36035714D01*
X16178571Y-36035714D01*
X16321428Y-35964285D01*
X16392857Y-35892857D01*
X16464285Y-35750000D01*
X16464285Y-35178571D01*
X17107142Y-37250000D02*
X17178571Y-37107142D01*
X17178571Y-36821428D01*
X17107142Y-36678571D01*
X16964285Y-36607142D01*
X16392857Y-36607142D01*
X16250000Y-36678571D01*
X16178571Y-36821428D01*
X16178571Y-37107142D01*
X16250000Y-37250000D01*
X16392857Y-37321428D01*
X16535714Y-37321428D01*
X16678571Y-36607142D01*
X16178571Y-37821428D02*
X17178571Y-38178571D01*
X16178571Y-38535714D01*
X17035714Y-39107142D02*
X17107142Y-39178571D01*
X17178571Y-39107142D01*
X17107142Y-39035714D01*
X17035714Y-39107142D01*
X17178571Y-39107142D01*
X17178571Y-41750000D02*
X17178571Y-40892857D01*
X17178571Y-41321428D02*
X15678571Y-41321428D01*
X15892857Y-41178571D01*
X16035714Y-41035714D01*
X16107142Y-40892857D01*
X17035714Y-42392857D02*
X17107142Y-42464285D01*
X17178571Y-42392857D01*
X17107142Y-42321428D01*
X17035714Y-42392857D01*
X17178571Y-42392857D01*
X15678571Y-43392857D02*
X15678571Y-43535714D01*
X15750000Y-43678571D01*
X15821428Y-43750000D01*
X15964285Y-43821428D01*
X16250000Y-43892857D01*
X16607142Y-43892857D01*
X16892857Y-43821428D01*
X17035714Y-43750000D01*
X17107142Y-43678571D01*
X17178571Y-43535714D01*
X17178571Y-43392857D01*
X17107142Y-43250000D01*
X17035714Y-43178571D01*
X16892857Y-43107142D01*
X16607142Y-43035714D01*
X16250000Y-43035714D01*
X15964285Y-43107142D01*
X15821428Y-43178571D01*
X15750000Y-43250000D01*
X15678571Y-43392857D01*
X28035714Y-16623571D02*
X29178571Y-16623571D01*
X29178571Y-16695000D02*
X28035714Y-16695000D01*
X28035714Y-16766428D02*
X29178571Y-16766428D01*
X29178571Y-16837857D02*
X28035714Y-16837857D01*
X28035714Y-16909285D02*
X29178571Y-16909285D01*
X29178571Y-16980714D02*
X28035714Y-16980714D01*
X28035714Y-17052142D02*
X29178571Y-17052142D01*
X29178571Y-17123571D02*
X28035714Y-17123571D01*
X28035714Y-17195000D02*
X29178571Y-17195000D01*
X29178571Y-17266428D02*
X28035714Y-17266428D01*
X28035714Y-17337857D02*
X29178571Y-17337857D01*
X29178571Y-17409285D02*
X28035714Y-17409285D01*
X28035714Y-17480714D02*
X29178571Y-17480714D01*
X29178571Y-17552142D02*
X28035714Y-17552142D01*
X28035714Y-17623571D02*
X29178571Y-17623571D01*
X28035714Y-16552142D02*
X28035714Y-17695000D01*
X29178571Y-17695000D01*
X29178571Y-16552142D01*
X28035714Y-16552142D01*
X29107142Y-19480714D02*
X29178571Y-19695000D01*
X29178571Y-20052142D01*
X29107142Y-20195000D01*
X29035714Y-20266428D01*
X28892857Y-20337857D01*
X28750000Y-20337857D01*
X28607142Y-20266428D01*
X28535714Y-20195000D01*
X28464285Y-20052142D01*
X28392857Y-19766428D01*
X28321428Y-19623571D01*
X28250000Y-19552142D01*
X28107142Y-19480714D01*
X27964285Y-19480714D01*
X27821428Y-19552142D01*
X27750000Y-19623571D01*
X27678571Y-19766428D01*
X27678571Y-20123571D01*
X27750000Y-20337857D01*
X29178571Y-20980714D02*
X27678571Y-20980714D01*
X29178571Y-21837857D02*
X28321428Y-21195000D01*
X27678571Y-21837857D02*
X28535714Y-20980714D01*
X27678571Y-23123571D02*
X27678571Y-22837857D01*
X27750000Y-22695000D01*
X27821428Y-22623571D01*
X28035714Y-22480714D01*
X28321428Y-22409285D01*
X28892857Y-22409285D01*
X29035714Y-22480714D01*
X29107142Y-22552142D01*
X29178571Y-22695000D01*
X29178571Y-22980714D01*
X29107142Y-23123571D01*
X29035714Y-23195000D01*
X28892857Y-23266428D01*
X28535714Y-23266428D01*
X28392857Y-23195000D01*
X28321428Y-23123571D01*
X28250000Y-22980714D01*
X28250000Y-22695000D01*
X28321428Y-22552142D01*
X28392857Y-22480714D01*
X28535714Y-22409285D01*
X28321428Y-24123571D02*
X28250000Y-23980714D01*
X28178571Y-23909285D01*
X28035714Y-23837857D01*
X27964285Y-23837857D01*
X27821428Y-23909285D01*
X27750000Y-23980714D01*
X27678571Y-24123571D01*
X27678571Y-24409285D01*
X27750000Y-24552142D01*
X27821428Y-24623571D01*
X27964285Y-24694999D01*
X28035714Y-24694999D01*
X28178571Y-24623571D01*
X28250000Y-24552142D01*
X28321428Y-24409285D01*
X28321428Y-24123571D01*
X28392857Y-23980714D01*
X28464285Y-23909285D01*
X28607142Y-23837857D01*
X28892857Y-23837857D01*
X29035714Y-23909285D01*
X29107142Y-23980714D01*
X29178571Y-24123571D01*
X29178571Y-24409285D01*
X29107142Y-24552142D01*
X29035714Y-24623571D01*
X28892857Y-24694999D01*
X28607142Y-24694999D01*
X28464285Y-24623571D01*
X28392857Y-24552142D01*
X28321428Y-24409285D01*
X29178571Y-26123571D02*
X29178571Y-25266428D01*
X29178571Y-25694999D02*
X27678571Y-25694999D01*
X27892857Y-25552142D01*
X28035714Y-25409285D01*
X28107142Y-25266428D01*
X27821428Y-26694999D02*
X27750000Y-26766428D01*
X27678571Y-26909285D01*
X27678571Y-27266428D01*
X27750000Y-27409285D01*
X27821428Y-27480714D01*
X27964285Y-27552142D01*
X28107142Y-27552142D01*
X28321428Y-27480714D01*
X29178571Y-26623571D01*
X29178571Y-27552142D01*
X16035714Y-16623571D02*
X17178571Y-16623571D01*
X17178571Y-16695000D02*
X16035714Y-16695000D01*
X16035714Y-16766428D02*
X17178571Y-16766428D01*
X17178571Y-16837857D02*
X16035714Y-16837857D01*
X16035714Y-16909285D02*
X17178571Y-16909285D01*
X17178571Y-16980714D02*
X16035714Y-16980714D01*
X16035714Y-17052142D02*
X17178571Y-17052142D01*
X17178571Y-17123571D02*
X16035714Y-17123571D01*
X16035714Y-17195000D02*
X17178571Y-17195000D01*
X17178571Y-17266428D02*
X16035714Y-17266428D01*
X16035714Y-17337857D02*
X17178571Y-17337857D01*
X17178571Y-17409285D02*
X16035714Y-17409285D01*
X16035714Y-17480714D02*
X17178571Y-17480714D01*
X17178571Y-17552142D02*
X16035714Y-17552142D01*
X16035714Y-17623571D02*
X17178571Y-17623571D01*
X16035714Y-16552142D02*
X16035714Y-17695000D01*
X17178571Y-17695000D01*
X17178571Y-16552142D01*
X16035714Y-16552142D01*
X15678571Y-19409285D02*
X17178571Y-19766428D01*
X16107142Y-20052142D01*
X17178571Y-20337857D01*
X15678571Y-20695000D01*
X17107142Y-21195000D02*
X17178571Y-21409285D01*
X17178571Y-21766428D01*
X17107142Y-21909285D01*
X17035714Y-21980714D01*
X16892857Y-22052142D01*
X16750000Y-22052142D01*
X16607142Y-21980714D01*
X16535714Y-21909285D01*
X16464285Y-21766428D01*
X16392857Y-21480714D01*
X16321428Y-21337857D01*
X16250000Y-21266428D01*
X16107142Y-21195000D01*
X15964285Y-21195000D01*
X15821428Y-21266428D01*
X15750000Y-21337857D01*
X15678571Y-21480714D01*
X15678571Y-21837857D01*
X15750000Y-22052142D01*
X15821428Y-22623571D02*
X15750000Y-22695000D01*
X15678571Y-22837857D01*
X15678571Y-23195000D01*
X15750000Y-23337857D01*
X15821428Y-23409285D01*
X15964285Y-23480714D01*
X16107142Y-23480714D01*
X16321428Y-23409285D01*
X17178571Y-22552142D01*
X17178571Y-23480714D01*
X16321428Y-24337857D02*
X16250000Y-24195000D01*
X16178571Y-24123571D01*
X16035714Y-24052142D01*
X15964285Y-24052142D01*
X15821428Y-24123571D01*
X15750000Y-24195000D01*
X15678571Y-24337857D01*
X15678571Y-24623571D01*
X15750000Y-24766428D01*
X15821428Y-24837857D01*
X15964285Y-24909285D01*
X16035714Y-24909285D01*
X16178571Y-24837857D01*
X16250000Y-24766428D01*
X16321428Y-24623571D01*
X16321428Y-24337857D01*
X16392857Y-24195000D01*
X16464285Y-24123571D01*
X16607142Y-24052142D01*
X16892857Y-24052142D01*
X17035714Y-24123571D01*
X17107142Y-24195000D01*
X17178571Y-24337857D01*
X17178571Y-24623571D01*
X17107142Y-24766428D01*
X17035714Y-24837857D01*
X16892857Y-24909285D01*
X16607142Y-24909285D01*
X16464285Y-24837857D01*
X16392857Y-24766428D01*
X16321428Y-24623571D01*
X17178571Y-26337857D02*
X17178571Y-25480714D01*
X17178571Y-25909285D02*
X15678571Y-25909285D01*
X15892857Y-25766428D01*
X16035714Y-25623571D01*
X16107142Y-25480714D01*
X15821428Y-26909285D02*
X15750000Y-26980714D01*
X15678571Y-27123571D01*
X15678571Y-27480714D01*
X15750000Y-27623571D01*
X15821428Y-27695000D01*
X15964285Y-27766428D01*
X16107142Y-27766428D01*
X16321428Y-27695000D01*
X17178571Y-26837857D01*
X17178571Y-27766428D01*
X16392857Y-28909285D02*
X16464285Y-29123571D01*
X16535714Y-29195000D01*
X16678571Y-29266428D01*
X16892857Y-29266428D01*
X17035714Y-29195000D01*
X17107142Y-29123571D01*
X17178571Y-28980714D01*
X17178571Y-28409285D01*
X15678571Y-28409285D01*
X15678571Y-28909285D01*
X15750000Y-29052142D01*
X15821428Y-29123571D01*
X15964285Y-29195000D01*
X16107142Y-29195000D01*
X16250000Y-29123571D01*
X16321428Y-29052142D01*
X16392857Y-28909285D01*
X16392857Y-28409285D01*
D11*
X15000000Y-45000000D02*
X15000000Y-15000000D01*
X30000000Y-45000000D02*
X15000000Y-45000000D01*
X30000000Y-15000000D02*
X30000000Y-45000000D01*
X15000000Y-15000000D02*
X30000000Y-15000000D01*
D12*
X23000000Y-22850000D02*
X22000000Y-22850000D01*
X22000000Y-21150000D02*
X23000000Y-21150000D01*
D11*
X25000000Y-19000000D02*
X25000000Y-17000000D01*
X20000000Y-17000000D02*
X20000000Y-19000000D01*
X25000000Y-15500000D02*
X25000000Y-15000000D01*
X25000000Y-15000000D02*
X25500000Y-15500000D01*
X25500000Y-15500000D02*
X25000000Y-15500000D01*
X21000000Y-16500000D02*
G75*
G02X24000000Y-16500000I1500000J-1500000D01*
G01*
X24000000Y-19500000D02*
G75*
G02X21000000Y-19500000I-1500000J1500000D01*
G01*
X25000000Y-20500000D02*
X25000000Y-20250000D01*
X25000000Y-15500000D02*
X25000000Y-15750000D01*
X20000000Y-15750000D02*
X20000000Y-15500000D01*
X20000000Y-20500000D02*
X20000000Y-20250000D01*
X20000000Y-20500000D02*
X25000000Y-20500000D01*
X25000000Y-15500000D02*
X20000000Y-15500000D01*
X22666666Y-24107142D02*
X22714285Y-24154761D01*
X22857142Y-24202380D01*
X22952380Y-24202380D01*
X23095238Y-24154761D01*
X23190476Y-24059523D01*
X23238095Y-23964285D01*
X23285714Y-23773809D01*
X23285714Y-23630952D01*
X23238095Y-23440476D01*
X23190476Y-23345238D01*
X23095238Y-23250000D01*
X22952380Y-23202380D01*
X22857142Y-23202380D01*
X22714285Y-23250000D01*
X22666666Y-23297619D01*
X21714285Y-24202380D02*
X22285714Y-24202380D01*
X22000000Y-24202380D02*
X22000000Y-23202380D01*
X22095238Y-23345238D01*
X22190476Y-23440476D01*
X22285714Y-23488095D01*
X27261904Y-17452380D02*
X27261904Y-18261904D01*
X27214285Y-18357142D01*
X27166666Y-18404761D01*
X27071428Y-18452380D01*
X26880952Y-18452380D01*
X26785714Y-18404761D01*
X26738095Y-18357142D01*
X26690476Y-18261904D01*
X26690476Y-17452380D01*
X25690476Y-18452380D02*
X26261904Y-18452380D01*
X25976190Y-18452380D02*
X25976190Y-17452380D01*
X26071428Y-17595238D01*
X26166666Y-17690476D01*
X26261904Y-17738095D01*
M02*
