%TF.GenerationSoftware,KiCad,Pcbnew,(5.0.0)*%
%TF.CreationDate,2018-12-15T00:02:50+01:00*%
%TF.ProjectId,addressable_led_board_V1.0,6164647265737361626C655F6C65645F,rev?*%
%TF.SameCoordinates,Original*%
%TF.FileFunction,Legend,Top*%
%TF.FilePolarity,Positive*%
%FSLAX46Y46*%
G04 Gerber Fmt 4.6, Leading zero omitted, Abs format (unit mm)*
G04 Created by KiCad (PCBNEW (5.0.0)) date 12/15/18 00:02:50*
%MOMM*%
%LPD*%
G01*
G04 APERTURE LIST*
%ADD10C,0.300000*%
%ADD11C,0.150000*%
%ADD12C,0.120000*%
G04 APERTURE END LIST*
D10*
X19678571Y-25178571D02*
X19678571Y-23678571D01*
X20250000Y-23678571D01*
X20392857Y-23750000D01*
X20464285Y-23821428D01*
X20535714Y-23964285D01*
X20535714Y-24178571D01*
X20464285Y-24321428D01*
X20392857Y-24392857D01*
X20250000Y-24464285D01*
X19678571Y-24464285D01*
X21678571Y-24392857D02*
X21892857Y-24464285D01*
X21964285Y-24535714D01*
X22035714Y-24678571D01*
X22035714Y-24892857D01*
X21964285Y-25035714D01*
X21892857Y-25107142D01*
X21750000Y-25178571D01*
X21178571Y-25178571D01*
X21178571Y-23678571D01*
X21678571Y-23678571D01*
X21821428Y-23750000D01*
X21892857Y-23821428D01*
X21964285Y-23964285D01*
X21964285Y-24107142D01*
X21892857Y-24250000D01*
X21821428Y-24321428D01*
X21678571Y-24392857D01*
X21178571Y-24392857D01*
X22678571Y-24607142D02*
X23821428Y-24607142D01*
X25392857Y-25035714D02*
X25321428Y-25107142D01*
X25107142Y-25178571D01*
X24964285Y-25178571D01*
X24750000Y-25107142D01*
X24607142Y-24964285D01*
X24535714Y-24821428D01*
X24464285Y-24535714D01*
X24464285Y-24321428D01*
X24535714Y-24035714D01*
X24607142Y-23892857D01*
X24750000Y-23750000D01*
X24964285Y-23678571D01*
X25107142Y-23678571D01*
X25321428Y-23750000D01*
X25392857Y-23821428D01*
X16321428Y-37552142D02*
X17821428Y-37552142D01*
X17821428Y-37909285D01*
X17750000Y-38123571D01*
X17607142Y-38266428D01*
X17464285Y-38337857D01*
X17178571Y-38409285D01*
X16964285Y-38409285D01*
X16678571Y-38337857D01*
X16535714Y-38266428D01*
X16392857Y-38123571D01*
X16321428Y-37909285D01*
X16321428Y-37552142D01*
X16321428Y-39266428D02*
X16392857Y-39123571D01*
X16464285Y-39052142D01*
X16607142Y-38980714D01*
X17035714Y-38980714D01*
X17178571Y-39052142D01*
X17250000Y-39123571D01*
X17321428Y-39266428D01*
X17321428Y-39480714D01*
X17250000Y-39623571D01*
X17178571Y-39695000D01*
X17035714Y-39766428D01*
X16607142Y-39766428D01*
X16464285Y-39695000D01*
X16392857Y-39623571D01*
X16321428Y-39480714D01*
X16321428Y-39266428D01*
X17321428Y-41052142D02*
X16321428Y-41052142D01*
X17321428Y-40409285D02*
X16535714Y-40409285D01*
X16392857Y-40480714D01*
X16321428Y-40623571D01*
X16321428Y-40837857D01*
X16392857Y-40980714D01*
X16464285Y-41052142D01*
X17321428Y-41552142D02*
X17321428Y-42123571D01*
X17821428Y-41766428D02*
X16535714Y-41766428D01*
X16392857Y-41837857D01*
X16321428Y-41980714D01*
X16321428Y-42123571D01*
X27321428Y-37552142D02*
X28821428Y-37552142D01*
X28821428Y-37909285D01*
X28750000Y-38123571D01*
X28607142Y-38266428D01*
X28464285Y-38337857D01*
X28178571Y-38409285D01*
X27964285Y-38409285D01*
X27678571Y-38337857D01*
X27535714Y-38266428D01*
X27392857Y-38123571D01*
X27321428Y-37909285D01*
X27321428Y-37552142D01*
X27321428Y-39052142D02*
X28321428Y-39052142D01*
X28821428Y-39052142D02*
X28750000Y-38980714D01*
X28678571Y-39052142D01*
X28750000Y-39123571D01*
X28821428Y-39052142D01*
X28678571Y-39052142D01*
X28321428Y-39766428D02*
X27321428Y-39766428D01*
X28178571Y-39766428D02*
X28250000Y-39837857D01*
X28321428Y-39980714D01*
X28321428Y-40195000D01*
X28250000Y-40337857D01*
X28107142Y-40409285D01*
X27321428Y-40409285D01*
D11*
X15000000Y-45000000D02*
X15000000Y-15000000D01*
X30000000Y-45000000D02*
X15000000Y-45000000D01*
X30000000Y-15000000D02*
X30000000Y-45000000D01*
X15000000Y-15000000D02*
X30000000Y-15000000D01*
D12*
X21450000Y-26450000D02*
X15500000Y-26450000D01*
X15500000Y-26450000D02*
X15500000Y-36550000D01*
X15500000Y-36550000D02*
X21450000Y-36550000D01*
X21450000Y-36550000D02*
X21450000Y-26450000D01*
X21450000Y-29750000D02*
X20700000Y-29750000D01*
X20700000Y-29750000D02*
X20700000Y-33250000D01*
X20700000Y-33250000D02*
X21450000Y-33250000D01*
X21450000Y-33250000D02*
X21450000Y-29750000D01*
X21450000Y-26450000D02*
X20700000Y-26450000D01*
X20700000Y-26450000D02*
X20700000Y-28250000D01*
X20700000Y-28250000D02*
X21450000Y-28250000D01*
X21450000Y-28250000D02*
X21450000Y-26450000D01*
X21450000Y-34750000D02*
X20700000Y-34750000D01*
X20700000Y-34750000D02*
X20700000Y-36550000D01*
X20700000Y-36550000D02*
X21450000Y-36550000D01*
X21450000Y-36550000D02*
X21450000Y-34750000D01*
X19200000Y-26450000D02*
X19200000Y-27200000D01*
X19200000Y-27200000D02*
X16250000Y-27200000D01*
X16250000Y-27200000D02*
X16250000Y-31500000D01*
X19200000Y-36550000D02*
X19200000Y-35800000D01*
X19200000Y-35800000D02*
X16250000Y-35800000D01*
X16250000Y-35800000D02*
X16250000Y-31500000D01*
X21750000Y-28650000D02*
X21750000Y-26150000D01*
X21750000Y-26150000D02*
X19250000Y-26150000D01*
X23550000Y-36550000D02*
X29500000Y-36550000D01*
X29500000Y-36550000D02*
X29500000Y-26450000D01*
X29500000Y-26450000D02*
X23550000Y-26450000D01*
X23550000Y-26450000D02*
X23550000Y-36550000D01*
X23550000Y-33250000D02*
X24300000Y-33250000D01*
X24300000Y-33250000D02*
X24300000Y-29750000D01*
X24300000Y-29750000D02*
X23550000Y-29750000D01*
X23550000Y-29750000D02*
X23550000Y-33250000D01*
X23550000Y-36550000D02*
X24300000Y-36550000D01*
X24300000Y-36550000D02*
X24300000Y-34750000D01*
X24300000Y-34750000D02*
X23550000Y-34750000D01*
X23550000Y-34750000D02*
X23550000Y-36550000D01*
X23550000Y-28250000D02*
X24300000Y-28250000D01*
X24300000Y-28250000D02*
X24300000Y-26450000D01*
X24300000Y-26450000D02*
X23550000Y-26450000D01*
X23550000Y-26450000D02*
X23550000Y-28250000D01*
X25800000Y-36550000D02*
X25800000Y-35800000D01*
X25800000Y-35800000D02*
X28750000Y-35800000D01*
X28750000Y-35800000D02*
X28750000Y-31500000D01*
X25800000Y-26450000D02*
X25800000Y-27200000D01*
X25800000Y-27200000D02*
X28750000Y-27200000D01*
X28750000Y-27200000D02*
X28750000Y-31500000D01*
X23250000Y-34350000D02*
X23250000Y-36850000D01*
X23250000Y-36850000D02*
X25750000Y-36850000D01*
D11*
X18666666Y-37452380D02*
X18666666Y-38166666D01*
X18619047Y-38309523D01*
X18523809Y-38404761D01*
X18380952Y-38452380D01*
X18285714Y-38452380D01*
X19666666Y-38452380D02*
X19095238Y-38452380D01*
X19380952Y-38452380D02*
X19380952Y-37452380D01*
X19285714Y-37595238D01*
X19190476Y-37690476D01*
X19095238Y-37738095D01*
X25666666Y-37452380D02*
X25666666Y-38166666D01*
X25619047Y-38309523D01*
X25523809Y-38404761D01*
X25380952Y-38452380D01*
X25285714Y-38452380D01*
X26095238Y-37547619D02*
X26142857Y-37500000D01*
X26238095Y-37452380D01*
X26476190Y-37452380D01*
X26571428Y-37500000D01*
X26619047Y-37547619D01*
X26666666Y-37642857D01*
X26666666Y-37738095D01*
X26619047Y-37880952D01*
X26047619Y-38452380D01*
X26666666Y-38452380D01*
M02*
