%TF.GenerationSoftware,KiCad,Pcbnew,(5.0.0)*%
%TF.CreationDate,2018-12-15T00:02:50+01:00*%
%TF.ProjectId,addressable_led_board_V1.0,6164647265737361626C655F6C65645F,rev?*%
%TF.SameCoordinates,Original*%
%TF.FileFunction,Copper,L2,Bot,Signal*%
%TF.FilePolarity,Positive*%
%FSLAX46Y46*%
G04 Gerber Fmt 4.6, Leading zero omitted, Abs format (unit mm)*
G04 Created by KiCad (PCBNEW (5.0.0)) date 12/15/18 00:02:50*
%MOMM*%
%LPD*%
G01*
G04 APERTURE LIST*
%ADD10C,0.150000*%
%ADD11C,5.600000*%
%ADD12R,1.500000X1.250000*%
%ADD13R,1.750000X1.750000*%
%ADD14C,1.750000*%
%ADD15R,2.000000X1.000000*%
%ADD16C,0.600000*%
%ADD17C,0.750000*%
%ADD18C,0.500000*%
%ADD19C,0.254000*%
G04 APERTURE END LIST*
D10*
X15000000Y-45000000D02*
X15000000Y-15000000D01*
X30000000Y-45000000D02*
X15000000Y-45000000D01*
X30000000Y-15000000D02*
X30000000Y-45000000D01*
X15000000Y-15000000D02*
X30000000Y-15000000D01*
D11*
X22500000Y-41000000D03*
D12*
X21250000Y-22000000D03*
X23750000Y-22000000D03*
D13*
X19000000Y-29000000D03*
D14*
X19000000Y-31500000D03*
X19000000Y-34000000D03*
D13*
X26000000Y-34000000D03*
D14*
X26000000Y-31500000D03*
X26000000Y-29000000D03*
D15*
X25200000Y-16400000D03*
X25200000Y-19600000D03*
X19800000Y-19600000D03*
X19800000Y-16400000D03*
D16*
X19800000Y-21250000D03*
D17*
X21250000Y-22000000D02*
X20500000Y-22000000D01*
X19800000Y-19600000D02*
X19800000Y-21250000D01*
X19800000Y-21250000D02*
X19800000Y-21300000D01*
X19800000Y-21300000D02*
X20500000Y-22000000D01*
D18*
X26000000Y-29000000D02*
X26000000Y-22000000D01*
X26600000Y-19600000D02*
X25200000Y-19600000D01*
X27000000Y-20000000D02*
X26600000Y-19600000D01*
X27000000Y-21000000D02*
X27000000Y-20000000D01*
X26000000Y-22000000D02*
X27000000Y-21000000D01*
X19000000Y-29000000D02*
X19000000Y-25500000D01*
X18600000Y-16400000D02*
X19800000Y-16400000D01*
X17500000Y-17500000D02*
X18600000Y-16400000D01*
X17500000Y-24000000D02*
X17500000Y-17500000D01*
X19000000Y-25500000D02*
X17500000Y-24000000D01*
D19*
G36*
X18035845Y-15712576D02*
X18035844Y-15712577D01*
X17961951Y-15761951D01*
X17912577Y-15835844D01*
X16935845Y-16812577D01*
X16861952Y-16861951D01*
X16812578Y-16935844D01*
X16812576Y-16935846D01*
X16666348Y-17154691D01*
X16597663Y-17500000D01*
X16615001Y-17587165D01*
X16615000Y-23912839D01*
X16597663Y-24000000D01*
X16615000Y-24087161D01*
X16615000Y-24087164D01*
X16666348Y-24345309D01*
X16861951Y-24638049D01*
X16935847Y-24687425D01*
X18115001Y-25866580D01*
X18115000Y-27479549D01*
X17877235Y-27526843D01*
X17667191Y-27667191D01*
X17526843Y-27877235D01*
X17477560Y-28125000D01*
X17477560Y-29875000D01*
X17526843Y-30122765D01*
X17667191Y-30332809D01*
X17862745Y-30463475D01*
X17823306Y-30502914D01*
X17937938Y-30617546D01*
X17684047Y-30700884D01*
X17478410Y-31265306D01*
X17504421Y-31865458D01*
X17684047Y-32299116D01*
X17937940Y-32382455D01*
X18820395Y-31500000D01*
X18806253Y-31485858D01*
X18985858Y-31306253D01*
X19000000Y-31320395D01*
X19014143Y-31306253D01*
X19193748Y-31485858D01*
X19179605Y-31500000D01*
X20062060Y-32382455D01*
X20315953Y-32299116D01*
X20521590Y-31734694D01*
X20495579Y-31134542D01*
X20315953Y-30700884D01*
X20062062Y-30617546D01*
X20176694Y-30502914D01*
X20137255Y-30463475D01*
X20332809Y-30332809D01*
X20473157Y-30122765D01*
X20522440Y-29875000D01*
X20522440Y-28125000D01*
X20473157Y-27877235D01*
X20332809Y-27667191D01*
X20122765Y-27526843D01*
X19885000Y-27479549D01*
X19885000Y-25587159D01*
X19902337Y-25499999D01*
X19885000Y-25412839D01*
X19885000Y-25412835D01*
X19833652Y-25154690D01*
X19638049Y-24861951D01*
X19564156Y-24812577D01*
X18385000Y-23633422D01*
X18385000Y-20586413D01*
X18552235Y-20698157D01*
X18790001Y-20745451D01*
X18790001Y-21150521D01*
X18790000Y-21150525D01*
X18790000Y-21200529D01*
X18770214Y-21300000D01*
X18790000Y-21399471D01*
X18790000Y-21399476D01*
X18848601Y-21694082D01*
X19071831Y-22028169D01*
X19156162Y-22084517D01*
X19715484Y-22643840D01*
X19771831Y-22728169D01*
X19856160Y-22784516D01*
X19856161Y-22784517D01*
X19888601Y-22806193D01*
X19901843Y-22872765D01*
X20042191Y-23082809D01*
X20252235Y-23223157D01*
X20500000Y-23272440D01*
X22000000Y-23272440D01*
X22247765Y-23223157D01*
X22457809Y-23082809D01*
X22498654Y-23021680D01*
X22640302Y-23163327D01*
X22873691Y-23260000D01*
X23464250Y-23260000D01*
X23623000Y-23101250D01*
X23623000Y-22127000D01*
X23603000Y-22127000D01*
X23603000Y-21873000D01*
X23623000Y-21873000D01*
X23623000Y-20898750D01*
X23464250Y-20740000D01*
X22873691Y-20740000D01*
X22640302Y-20836673D01*
X22498654Y-20978320D01*
X22457809Y-20917191D01*
X22247765Y-20776843D01*
X22000000Y-20727560D01*
X20899945Y-20727560D01*
X21047765Y-20698157D01*
X21257809Y-20557809D01*
X21398157Y-20347765D01*
X21447440Y-20100000D01*
X21447440Y-19100000D01*
X23552560Y-19100000D01*
X23552560Y-20100000D01*
X23601843Y-20347765D01*
X23742191Y-20557809D01*
X23952235Y-20698157D01*
X24162596Y-20740000D01*
X24035750Y-20740000D01*
X23877000Y-20898750D01*
X23877000Y-21873000D01*
X23897000Y-21873000D01*
X23897000Y-22127000D01*
X23877000Y-22127000D01*
X23877000Y-23101250D01*
X24035750Y-23260000D01*
X24626309Y-23260000D01*
X24859698Y-23163327D01*
X25038327Y-22984699D01*
X25115001Y-22799592D01*
X25115000Y-27749538D01*
X24719884Y-28144654D01*
X24490000Y-28699642D01*
X24490000Y-29300358D01*
X24719884Y-29855346D01*
X25144654Y-30280116D01*
X25166394Y-30289121D01*
X25117545Y-30437940D01*
X26000000Y-31320395D01*
X26882455Y-30437940D01*
X26833606Y-30289121D01*
X26855346Y-30280116D01*
X27280116Y-29855346D01*
X27510000Y-29300358D01*
X27510000Y-28699642D01*
X27280116Y-28144654D01*
X26885000Y-27749538D01*
X26885000Y-22366578D01*
X27564156Y-21687423D01*
X27638049Y-21638049D01*
X27773158Y-21435846D01*
X27833652Y-21345310D01*
X27852871Y-21248690D01*
X27885000Y-21087165D01*
X27885000Y-21087161D01*
X27902337Y-21000000D01*
X27885000Y-20912839D01*
X27885000Y-20087159D01*
X27902337Y-19999999D01*
X27885000Y-19912839D01*
X27885000Y-19912835D01*
X27833652Y-19654690D01*
X27638049Y-19361951D01*
X27564153Y-19312575D01*
X27287425Y-19035847D01*
X27238049Y-18961951D01*
X26945310Y-18766348D01*
X26709416Y-18719426D01*
X26657809Y-18642191D01*
X26447765Y-18501843D01*
X26200000Y-18452560D01*
X24200000Y-18452560D01*
X23952235Y-18501843D01*
X23742191Y-18642191D01*
X23601843Y-18852235D01*
X23552560Y-19100000D01*
X21447440Y-19100000D01*
X21398157Y-18852235D01*
X21257809Y-18642191D01*
X21047765Y-18501843D01*
X20800000Y-18452560D01*
X18800000Y-18452560D01*
X18552235Y-18501843D01*
X18385000Y-18613587D01*
X18385000Y-17866578D01*
X18720043Y-17531536D01*
X18800000Y-17547440D01*
X20800000Y-17547440D01*
X21047765Y-17498157D01*
X21257809Y-17357809D01*
X21398157Y-17147765D01*
X21447440Y-16900000D01*
X21447440Y-16685750D01*
X23565000Y-16685750D01*
X23565000Y-17026310D01*
X23661673Y-17259699D01*
X23840302Y-17438327D01*
X24073691Y-17535000D01*
X24914250Y-17535000D01*
X25073000Y-17376250D01*
X25073000Y-16527000D01*
X25327000Y-16527000D01*
X25327000Y-17376250D01*
X25485750Y-17535000D01*
X26326309Y-17535000D01*
X26559698Y-17438327D01*
X26738327Y-17259699D01*
X26835000Y-17026310D01*
X26835000Y-16685750D01*
X26676250Y-16527000D01*
X25327000Y-16527000D01*
X25073000Y-16527000D01*
X23723750Y-16527000D01*
X23565000Y-16685750D01*
X21447440Y-16685750D01*
X21447440Y-15900000D01*
X21409647Y-15710000D01*
X23591381Y-15710000D01*
X23565000Y-15773690D01*
X23565000Y-16114250D01*
X23723750Y-16273000D01*
X25073000Y-16273000D01*
X25073000Y-16253000D01*
X25327000Y-16253000D01*
X25327000Y-16273000D01*
X26676250Y-16273000D01*
X26835000Y-16114250D01*
X26835000Y-15773690D01*
X26808619Y-15710000D01*
X29290000Y-15710000D01*
X29290001Y-44290000D01*
X23533325Y-44290000D01*
X24445771Y-43912053D01*
X25412053Y-42945771D01*
X25935000Y-41683264D01*
X25935000Y-40316736D01*
X25412053Y-39054229D01*
X24445771Y-38087947D01*
X23183264Y-37565000D01*
X21816736Y-37565000D01*
X20554229Y-38087947D01*
X19587947Y-39054229D01*
X19065000Y-40316736D01*
X19065000Y-41683264D01*
X19587947Y-42945771D01*
X20554229Y-43912053D01*
X21466675Y-44290000D01*
X15710000Y-44290000D01*
X15710000Y-33699642D01*
X17490000Y-33699642D01*
X17490000Y-34300358D01*
X17719884Y-34855346D01*
X18144654Y-35280116D01*
X18699642Y-35510000D01*
X19300358Y-35510000D01*
X19855346Y-35280116D01*
X20280116Y-34855346D01*
X20510000Y-34300358D01*
X20510000Y-33699642D01*
X20280116Y-33144654D01*
X20260462Y-33125000D01*
X24477560Y-33125000D01*
X24477560Y-34875000D01*
X24526843Y-35122765D01*
X24667191Y-35332809D01*
X24877235Y-35473157D01*
X25125000Y-35522440D01*
X26875000Y-35522440D01*
X27122765Y-35473157D01*
X27332809Y-35332809D01*
X27473157Y-35122765D01*
X27522440Y-34875000D01*
X27522440Y-33125000D01*
X27473157Y-32877235D01*
X27332809Y-32667191D01*
X27137255Y-32536525D01*
X27176694Y-32497086D01*
X27062062Y-32382454D01*
X27315953Y-32299116D01*
X27521590Y-31734694D01*
X27495579Y-31134542D01*
X27315953Y-30700884D01*
X27062060Y-30617545D01*
X26179605Y-31500000D01*
X26193748Y-31514143D01*
X26014143Y-31693748D01*
X26000000Y-31679605D01*
X25985858Y-31693748D01*
X25806253Y-31514143D01*
X25820395Y-31500000D01*
X24937940Y-30617545D01*
X24684047Y-30700884D01*
X24478410Y-31265306D01*
X24504421Y-31865458D01*
X24684047Y-32299116D01*
X24937938Y-32382454D01*
X24823306Y-32497086D01*
X24862745Y-32536525D01*
X24667191Y-32667191D01*
X24526843Y-32877235D01*
X24477560Y-33125000D01*
X20260462Y-33125000D01*
X19855346Y-32719884D01*
X19833606Y-32710879D01*
X19882455Y-32562060D01*
X19000000Y-31679605D01*
X18117545Y-32562060D01*
X18166394Y-32710879D01*
X18144654Y-32719884D01*
X17719884Y-33144654D01*
X17490000Y-33699642D01*
X15710000Y-33699642D01*
X15710000Y-15710000D01*
X18039700Y-15710000D01*
X18035845Y-15712576D01*
X18035845Y-15712576D01*
G37*
X18035845Y-15712576D02*
X18035844Y-15712577D01*
X17961951Y-15761951D01*
X17912577Y-15835844D01*
X16935845Y-16812577D01*
X16861952Y-16861951D01*
X16812578Y-16935844D01*
X16812576Y-16935846D01*
X16666348Y-17154691D01*
X16597663Y-17500000D01*
X16615001Y-17587165D01*
X16615000Y-23912839D01*
X16597663Y-24000000D01*
X16615000Y-24087161D01*
X16615000Y-24087164D01*
X16666348Y-24345309D01*
X16861951Y-24638049D01*
X16935847Y-24687425D01*
X18115001Y-25866580D01*
X18115000Y-27479549D01*
X17877235Y-27526843D01*
X17667191Y-27667191D01*
X17526843Y-27877235D01*
X17477560Y-28125000D01*
X17477560Y-29875000D01*
X17526843Y-30122765D01*
X17667191Y-30332809D01*
X17862745Y-30463475D01*
X17823306Y-30502914D01*
X17937938Y-30617546D01*
X17684047Y-30700884D01*
X17478410Y-31265306D01*
X17504421Y-31865458D01*
X17684047Y-32299116D01*
X17937940Y-32382455D01*
X18820395Y-31500000D01*
X18806253Y-31485858D01*
X18985858Y-31306253D01*
X19000000Y-31320395D01*
X19014143Y-31306253D01*
X19193748Y-31485858D01*
X19179605Y-31500000D01*
X20062060Y-32382455D01*
X20315953Y-32299116D01*
X20521590Y-31734694D01*
X20495579Y-31134542D01*
X20315953Y-30700884D01*
X20062062Y-30617546D01*
X20176694Y-30502914D01*
X20137255Y-30463475D01*
X20332809Y-30332809D01*
X20473157Y-30122765D01*
X20522440Y-29875000D01*
X20522440Y-28125000D01*
X20473157Y-27877235D01*
X20332809Y-27667191D01*
X20122765Y-27526843D01*
X19885000Y-27479549D01*
X19885000Y-25587159D01*
X19902337Y-25499999D01*
X19885000Y-25412839D01*
X19885000Y-25412835D01*
X19833652Y-25154690D01*
X19638049Y-24861951D01*
X19564156Y-24812577D01*
X18385000Y-23633422D01*
X18385000Y-20586413D01*
X18552235Y-20698157D01*
X18790001Y-20745451D01*
X18790001Y-21150521D01*
X18790000Y-21150525D01*
X18790000Y-21200529D01*
X18770214Y-21300000D01*
X18790000Y-21399471D01*
X18790000Y-21399476D01*
X18848601Y-21694082D01*
X19071831Y-22028169D01*
X19156162Y-22084517D01*
X19715484Y-22643840D01*
X19771831Y-22728169D01*
X19856160Y-22784516D01*
X19856161Y-22784517D01*
X19888601Y-22806193D01*
X19901843Y-22872765D01*
X20042191Y-23082809D01*
X20252235Y-23223157D01*
X20500000Y-23272440D01*
X22000000Y-23272440D01*
X22247765Y-23223157D01*
X22457809Y-23082809D01*
X22498654Y-23021680D01*
X22640302Y-23163327D01*
X22873691Y-23260000D01*
X23464250Y-23260000D01*
X23623000Y-23101250D01*
X23623000Y-22127000D01*
X23603000Y-22127000D01*
X23603000Y-21873000D01*
X23623000Y-21873000D01*
X23623000Y-20898750D01*
X23464250Y-20740000D01*
X22873691Y-20740000D01*
X22640302Y-20836673D01*
X22498654Y-20978320D01*
X22457809Y-20917191D01*
X22247765Y-20776843D01*
X22000000Y-20727560D01*
X20899945Y-20727560D01*
X21047765Y-20698157D01*
X21257809Y-20557809D01*
X21398157Y-20347765D01*
X21447440Y-20100000D01*
X21447440Y-19100000D01*
X23552560Y-19100000D01*
X23552560Y-20100000D01*
X23601843Y-20347765D01*
X23742191Y-20557809D01*
X23952235Y-20698157D01*
X24162596Y-20740000D01*
X24035750Y-20740000D01*
X23877000Y-20898750D01*
X23877000Y-21873000D01*
X23897000Y-21873000D01*
X23897000Y-22127000D01*
X23877000Y-22127000D01*
X23877000Y-23101250D01*
X24035750Y-23260000D01*
X24626309Y-23260000D01*
X24859698Y-23163327D01*
X25038327Y-22984699D01*
X25115001Y-22799592D01*
X25115000Y-27749538D01*
X24719884Y-28144654D01*
X24490000Y-28699642D01*
X24490000Y-29300358D01*
X24719884Y-29855346D01*
X25144654Y-30280116D01*
X25166394Y-30289121D01*
X25117545Y-30437940D01*
X26000000Y-31320395D01*
X26882455Y-30437940D01*
X26833606Y-30289121D01*
X26855346Y-30280116D01*
X27280116Y-29855346D01*
X27510000Y-29300358D01*
X27510000Y-28699642D01*
X27280116Y-28144654D01*
X26885000Y-27749538D01*
X26885000Y-22366578D01*
X27564156Y-21687423D01*
X27638049Y-21638049D01*
X27773158Y-21435846D01*
X27833652Y-21345310D01*
X27852871Y-21248690D01*
X27885000Y-21087165D01*
X27885000Y-21087161D01*
X27902337Y-21000000D01*
X27885000Y-20912839D01*
X27885000Y-20087159D01*
X27902337Y-19999999D01*
X27885000Y-19912839D01*
X27885000Y-19912835D01*
X27833652Y-19654690D01*
X27638049Y-19361951D01*
X27564153Y-19312575D01*
X27287425Y-19035847D01*
X27238049Y-18961951D01*
X26945310Y-18766348D01*
X26709416Y-18719426D01*
X26657809Y-18642191D01*
X26447765Y-18501843D01*
X26200000Y-18452560D01*
X24200000Y-18452560D01*
X23952235Y-18501843D01*
X23742191Y-18642191D01*
X23601843Y-18852235D01*
X23552560Y-19100000D01*
X21447440Y-19100000D01*
X21398157Y-18852235D01*
X21257809Y-18642191D01*
X21047765Y-18501843D01*
X20800000Y-18452560D01*
X18800000Y-18452560D01*
X18552235Y-18501843D01*
X18385000Y-18613587D01*
X18385000Y-17866578D01*
X18720043Y-17531536D01*
X18800000Y-17547440D01*
X20800000Y-17547440D01*
X21047765Y-17498157D01*
X21257809Y-17357809D01*
X21398157Y-17147765D01*
X21447440Y-16900000D01*
X21447440Y-16685750D01*
X23565000Y-16685750D01*
X23565000Y-17026310D01*
X23661673Y-17259699D01*
X23840302Y-17438327D01*
X24073691Y-17535000D01*
X24914250Y-17535000D01*
X25073000Y-17376250D01*
X25073000Y-16527000D01*
X25327000Y-16527000D01*
X25327000Y-17376250D01*
X25485750Y-17535000D01*
X26326309Y-17535000D01*
X26559698Y-17438327D01*
X26738327Y-17259699D01*
X26835000Y-17026310D01*
X26835000Y-16685750D01*
X26676250Y-16527000D01*
X25327000Y-16527000D01*
X25073000Y-16527000D01*
X23723750Y-16527000D01*
X23565000Y-16685750D01*
X21447440Y-16685750D01*
X21447440Y-15900000D01*
X21409647Y-15710000D01*
X23591381Y-15710000D01*
X23565000Y-15773690D01*
X23565000Y-16114250D01*
X23723750Y-16273000D01*
X25073000Y-16273000D01*
X25073000Y-16253000D01*
X25327000Y-16253000D01*
X25327000Y-16273000D01*
X26676250Y-16273000D01*
X26835000Y-16114250D01*
X26835000Y-15773690D01*
X26808619Y-15710000D01*
X29290000Y-15710000D01*
X29290001Y-44290000D01*
X23533325Y-44290000D01*
X24445771Y-43912053D01*
X25412053Y-42945771D01*
X25935000Y-41683264D01*
X25935000Y-40316736D01*
X25412053Y-39054229D01*
X24445771Y-38087947D01*
X23183264Y-37565000D01*
X21816736Y-37565000D01*
X20554229Y-38087947D01*
X19587947Y-39054229D01*
X19065000Y-40316736D01*
X19065000Y-41683264D01*
X19587947Y-42945771D01*
X20554229Y-43912053D01*
X21466675Y-44290000D01*
X15710000Y-44290000D01*
X15710000Y-33699642D01*
X17490000Y-33699642D01*
X17490000Y-34300358D01*
X17719884Y-34855346D01*
X18144654Y-35280116D01*
X18699642Y-35510000D01*
X19300358Y-35510000D01*
X19855346Y-35280116D01*
X20280116Y-34855346D01*
X20510000Y-34300358D01*
X20510000Y-33699642D01*
X20280116Y-33144654D01*
X20260462Y-33125000D01*
X24477560Y-33125000D01*
X24477560Y-34875000D01*
X24526843Y-35122765D01*
X24667191Y-35332809D01*
X24877235Y-35473157D01*
X25125000Y-35522440D01*
X26875000Y-35522440D01*
X27122765Y-35473157D01*
X27332809Y-35332809D01*
X27473157Y-35122765D01*
X27522440Y-34875000D01*
X27522440Y-33125000D01*
X27473157Y-32877235D01*
X27332809Y-32667191D01*
X27137255Y-32536525D01*
X27176694Y-32497086D01*
X27062062Y-32382454D01*
X27315953Y-32299116D01*
X27521590Y-31734694D01*
X27495579Y-31134542D01*
X27315953Y-30700884D01*
X27062060Y-30617545D01*
X26179605Y-31500000D01*
X26193748Y-31514143D01*
X26014143Y-31693748D01*
X26000000Y-31679605D01*
X25985858Y-31693748D01*
X25806253Y-31514143D01*
X25820395Y-31500000D01*
X24937940Y-30617545D01*
X24684047Y-30700884D01*
X24478410Y-31265306D01*
X24504421Y-31865458D01*
X24684047Y-32299116D01*
X24937938Y-32382454D01*
X24823306Y-32497086D01*
X24862745Y-32536525D01*
X24667191Y-32667191D01*
X24526843Y-32877235D01*
X24477560Y-33125000D01*
X20260462Y-33125000D01*
X19855346Y-32719884D01*
X19833606Y-32710879D01*
X19882455Y-32562060D01*
X19000000Y-31679605D01*
X18117545Y-32562060D01*
X18166394Y-32710879D01*
X18144654Y-32719884D01*
X17719884Y-33144654D01*
X17490000Y-33699642D01*
X15710000Y-33699642D01*
X15710000Y-15710000D01*
X18039700Y-15710000D01*
X18035845Y-15712576D01*
M02*
