<?xml version="1.0" standalone="no"?>
 <!DOCTYPE svg PUBLIC "-//W3C//DTD SVG 1.1//EN" 
 "http://www.w3.org/Graphics/SVG/1.1/DTD/svg11.dtd"> 
<svg xmlns="http://www.w3.org/2000/svg" version="1.1" 
    width="29.7002cm" height="21.0007cm" viewBox="0 0 116930 82680 ">
<title>SVG Picture created as addressable_led_board_V1.0-B.SilkS.svg date 2018/12/14 23:45:55 </title>
  <desc>Picture generated by PCBNEW </desc>
<g style="fill:#000000; fill-opacity:1;stroke:#000000; stroke-opacity:1;
stroke-linecap:round; stroke-linejoin:round; "
 transform="translate(0 0) scale(1 1)">
</g>
<g style="fill:#000000; fill-opacity:0.0; 
stroke:#000000; stroke-width:-0.000393701; stroke-opacity:1; 
stroke-linecap:round; stroke-linejoin:round;">
</g>
<g style="fill:#000000; fill-opacity:0.0; 
stroke:#000000; stroke-width:118.11; stroke-opacity:1; 
stroke-linecap:round; stroke-linejoin:round;">
<path d="M6763 14187
L6482 13990
" />
<path d="M6763 13849
L6172 13849
L6172 14074
L6200 14131
L6228 14159
L6285 14187
L6369 14187
L6425 14159
L6453 14131
L6482 14074
L6482 13849
" />
<path d="M6735 14665
L6763 14609
L6763 14496
L6735 14440
L6678 14412
L6453 14412
L6397 14440
L6369 14496
L6369 14609
L6397 14665
L6453 14693
L6510 14693
L6566 14412
" />
<path d="M6369 14890
L6763 15030
L6369 15171
" />
<path d="M6706 15396
L6735 15424
L6763 15396
L6735 15368
L6706 15396
L6763 15396
" />
<path d="M6763 16437
L6763 16099
" />
<path d="M6763 16268
L6172 16268
L6257 16212
L6313 16155
L6341 16099
" />
<path d="M6706 16690
L6735 16718
L6763 16690
L6735 16661
L6706 16690
L6763 16690
" />
<path d="M6172 17083
L6172 17140
L6200 17196
L6228 17224
L6285 17252
L6397 17280
L6538 17280
L6650 17252
L6706 17224
L6735 17196
L6763 17140
L6763 17083
L6735 17027
L6706 16999
L6650 16971
L6538 16943
L6397 16943
L6285 16971
L6228 16999
L6200 17027
L6172 17083
" />
<path d="M11037 6544
L11487 6544
" />
<path d="M11487 6572
L11037 6572
" />
<path d="M11037 6600
L11487 6600
" />
<path d="M11487 6629
L11037 6629
" />
<path d="M11037 6657
L11487 6657
" />
<path d="M11487 6685
L11037 6685
" />
<path d="M11037 6713
L11487 6713
" />
<path d="M11487 6741
L11037 6741
" />
<path d="M11037 6769
L11487 6769
" />
<path d="M11487 6797
L11037 6797
" />
<path d="M11037 6825
L11487 6825
" />
<path d="M11487 6854
L11037 6854
" />
<path d="M11037 6882
L11487 6882
" />
<path d="M11487 6910
L11037 6910
" />
<path d="M11037 6938
L11487 6938
" />
<path d="M11037 6516
L11037 6966
L11487 6966
L11487 6516
L11037 6516
" />
<path d="M11459 7669
L11487 7753
L11487 7894
L11459 7950
L11431 7978
L11375 8007
L11318 8007
L11262 7978
L11234 7950
L11206 7894
L11178 7782
L11150 7725
L11122 7697
L11065 7669
L11009 7669
L10953 7697
L10925 7725
L10897 7782
L10897 7922
L10925 8007
" />
<path d="M11487 8260
L10897 8260
" />
<path d="M11487 8597
L11150 8344
" />
<path d="M10897 8597
L11234 8260
" />
<path d="M10897 9103
L10897 8991
L10925 8935
L10953 8906
L11037 8850
L11150 8822
L11375 8822
L11431 8850
L11459 8878
L11487 8935
L11487 9047
L11459 9103
L11431 9131
L11375 9160
L11234 9160
L11178 9131
L11150 9103
L11122 9047
L11122 8935
L11150 8878
L11178 8850
L11234 8822
" />
<path d="M11150 9497
L11122 9441
L11093 9413
L11037 9384
L11009 9384
L10953 9413
L10925 9441
L10897 9497
L10897 9609
L10925 9666
L10953 9694
L11009 9722
L11037 9722
L11093 9694
L11122 9666
L11150 9609
L11150 9497
L11178 9441
L11206 9413
L11262 9384
L11375 9384
L11431 9413
L11459 9441
L11487 9497
L11487 9609
L11459 9666
L11431 9694
L11375 9722
L11262 9722
L11206 9694
L11178 9666
L11150 9609
" />
<path d="M11487 10284
L11487 9947
" />
<path d="M11487 10116
L10897 10116
L10981 10059
L11037 10003
L11065 9947
" />
<path d="M10953 10509
L10925 10537
L10897 10594
L10897 10734
L10925 10791
L10953 10819
L11009 10847
L11065 10847
L11150 10819
L11487 10481
L11487 10847
" />
<path d="M6313 6544
L6763 6544
" />
<path d="M6763 6572
L6313 6572
" />
<path d="M6313 6600
L6763 6600
" />
<path d="M6763 6629
L6313 6629
" />
<path d="M6313 6657
L6763 6657
" />
<path d="M6763 6685
L6313 6685
" />
<path d="M6313 6713
L6763 6713
" />
<path d="M6763 6741
L6313 6741
" />
<path d="M6313 6769
L6763 6769
" />
<path d="M6763 6797
L6313 6797
" />
<path d="M6313 6825
L6763 6825
" />
<path d="M6763 6854
L6313 6854
" />
<path d="M6313 6882
L6763 6882
" />
<path d="M6763 6910
L6313 6910
" />
<path d="M6313 6938
L6763 6938
" />
<path d="M6313 6516
L6313 6966
L6763 6966
L6763 6516
L6313 6516
" />
<path d="M6172 7641
L6763 7782
L6341 7894
L6763 8007
L6172 8147
" />
<path d="M6735 8344
L6763 8428
L6763 8569
L6735 8625
L6706 8653
L6650 8681
L6594 8681
L6538 8653
L6510 8625
L6482 8569
L6453 8456
L6425 8400
L6397 8372
L6341 8344
L6285 8344
L6228 8372
L6200 8400
L6172 8456
L6172 8597
L6200 8681
" />
<path d="M6228 8906
L6200 8935
L6172 8991
L6172 9131
L6200 9188
L6228 9216
L6285 9244
L6341 9244
L6425 9216
L6763 8878
L6763 9244
" />
<path d="M6425 9581
L6397 9525
L6369 9497
L6313 9469
L6285 9469
L6228 9497
L6200 9525
L6172 9581
L6172 9694
L6200 9750
L6228 9778
L6285 9806
L6313 9806
L6369 9778
L6397 9750
L6425 9694
L6425 9581
L6453 9525
L6482 9497
L6538 9469
L6650 9469
L6706 9497
L6735 9525
L6763 9581
L6763 9694
L6735 9750
L6706 9778
L6650 9806
L6538 9806
L6482 9778
L6453 9750
L6425 9694
" />
<path d="M6763 10369
L6763 10031
" />
<path d="M6763 10200
L6172 10200
L6257 10144
L6313 10088
L6341 10031
" />
<path d="M6228 10594
L6200 10622
L6172 10678
L6172 10819
L6200 10875
L6228 10903
L6285 10931
L6341 10931
L6425 10903
L6763 10566
L6763 10931
" />
<path d="M6453 11381
L6482 11465
L6510 11494
L6566 11522
L6650 11522
L6706 11494
L6735 11465
L6763 11409
L6763 11184
L6172 11184
L6172 11381
L6200 11437
L6228 11465
L6285 11494
L6341 11494
L6397 11465
L6425 11437
L6453 11381
L6453 11184
" />
</g>
<g style="fill:#000000; fill-opacity:0.0; 
stroke:#000000; stroke-width:59.0551; stroke-opacity:1; 
stroke-linecap:round; stroke-linejoin:round;">
<path d="M5905 17716
L5905 5905
" />
<path d="M11811 17716
L5905 17716
" />
<path d="M11811 5905
L11811 17716
" />
<path d="M5905 5905
L11811 5905
" />
</g>
<g style="fill:#000000; fill-opacity:0.0; 
stroke:#000000; stroke-width:47.2441; stroke-opacity:1; 
stroke-linecap:round; stroke-linejoin:round;">
<path d="M9055 8996
L8661 8996
" />
<path d="M8661 8326
L9055 8326
" />
</g>
<g style="fill:#000000; fill-opacity:0.0; 
stroke:#000000; stroke-width:59.0551; stroke-opacity:1; 
stroke-linecap:round; stroke-linejoin:round;">
<path d="M9842 7480
L9842 6692
" />
<path d="M7874 6692
L7874 7480
" />
<path d="M9842 6102
L9842 5905
" />
<path d="M9842 5905
L10039 6102
" />
<path d="M10039 6102
L9842 6102
" />
<path d="M9448.82 6496.06 A835.165 835.165 0.0 0 0 8267.72 6496.06 " />
<path d="M8267.72 7677.17 A835.165 835.165 0.0 0 0 9448.82 7677.17 " />
<path d="M9842 8070
L9842 7972
" />
<path d="M9842 6102
L9842 6200
" />
<path d="M7874 6200
L7874 6102
" />
<path d="M7874 8070
L7874 7972
" />
<path d="M7874 8070
L9842 8070
" />
<path d="M9842 6102
L7874 6102
" />
<path d="M8923 9491
L8942 9509
L8998 9528
L9036 9528
L9092 9509
L9130 9472
L9148 9434
L9167 9359
L9167 9303
L9148 9228
L9130 9191
L9092 9153
L9036 9134
L8998 9134
L8942 9153
L8923 9172
" />
<path d="M8548 9528
L8773 9528
" />
<path d="M8661 9528
L8661 9134
L8698 9191
L8736 9228
L8773 9247
" />
<path d="M10733 6871
L10733 7189
L10714 7227
L10695 7245
L10658 7264
L10583 7264
L10545 7245
L10526 7227
L10508 7189
L10508 6871
" />
<path d="M10114 7264
L10339 7264
" />
<path d="M10226 7264
L10226 6871
L10264 6927
L10301 6964
L10339 6983
" />
</g> 
</svg>
