<?xml version="1.0" standalone="no"?>
 <!DOCTYPE svg PUBLIC "-//W3C//DTD SVG 1.1//EN" 
 "http://www.w3.org/Graphics/SVG/1.1/DTD/svg11.dtd"> 
<svg xmlns="http://www.w3.org/2000/svg" version="1.1" 
    width="29.7002cm" height="21.0007cm" viewBox="0 0 116930 82680 ">
<title>SVG Picture created as addressable_led_board_V1.0-F.SilkS.svg date 2018/12/14 23:45:55 </title>
  <desc>Picture generated by PCBNEW </desc>
<g style="fill:#000000; fill-opacity:1;stroke:#000000; stroke-opacity:1;
stroke-linecap:round; stroke-linejoin:round; "
 transform="translate(0 0) scale(1 1)">
</g>
<g style="fill:#000000; fill-opacity:0.0; 
stroke:#000000; stroke-width:-0.000393701; stroke-opacity:1; 
stroke-linecap:round; stroke-linejoin:round;">
</g>
<g style="fill:#000000; fill-opacity:0.0; 
stroke:#000000; stroke-width:118.11; stroke-opacity:1; 
stroke-linecap:round; stroke-linejoin:round;">
<path d="M7747 9912
L7747 9322
L7972 9322
L8028 9350
L8056 9378
L8084 9434
L8084 9519
L8056 9575
L8028 9603
L7972 9631
L7747 9631
" />
<path d="M8534 9603
L8619 9631
L8647 9659
L8675 9715
L8675 9800
L8647 9856
L8619 9884
L8562 9912
L8338 9912
L8338 9322
L8534 9322
L8591 9350
L8619 9378
L8647 9434
L8647 9491
L8619 9547
L8591 9575
L8534 9603
L8338 9603
" />
<path d="M8928 9687
L9378 9687
" />
<path d="M9997 9856
L9969 9884
L9884 9912
L9828 9912
L9744 9884
L9687 9828
L9659 9772
L9631 9659
L9631 9575
L9659 9462
L9687 9406
L9744 9350
L9828 9322
L9884 9322
L9969 9350
L9997 9378
" />
<path d="M6425 14784
L7016 14784
L7016 14924
L6988 15009
L6931 15065
L6875 15093
L6763 15121
L6678 15121
L6566 15093
L6510 15065
L6453 15009
L6425 14924
L6425 14784
" />
<path d="M6425 15459
L6453 15402
L6482 15374
L6538 15346
L6706 15346
L6763 15374
L6791 15402
L6819 15459
L6819 15543
L6791 15599
L6763 15627
L6706 15656
L6538 15656
L6482 15627
L6453 15599
L6425 15543
L6425 15459
" />
<path d="M6819 16162
L6425 16162
" />
<path d="M6819 15909
L6510 15909
L6453 15937
L6425 15993
L6425 16077
L6453 16134
L6482 16162
" />
<path d="M6819 16359
L6819 16584
" />
<path d="M7016 16443
L6510 16443
L6453 16471
L6425 16527
L6425 16584
" />
<path d="M10756 14784
L11347 14784
L11347 14924
L11318 15009
L11262 15065
L11206 15093
L11093 15121
L11009 15121
L10897 15093
L10840 15065
L10784 15009
L10756 14924
L10756 14784
" />
<path d="M10756 15374
L11150 15374
" />
<path d="M11347 15374
L11318 15346
L11290 15374
L11318 15402
L11347 15374
L11290 15374
" />
<path d="M11150 15656
L10756 15656
" />
<path d="M11093 15656
L11122 15684
L11150 15740
L11150 15824
L11122 15881
L11065 15909
L10756 15909
" />
</g>
<g style="fill:#000000; fill-opacity:0.0; 
stroke:#000000; stroke-width:59.0551; stroke-opacity:1; 
stroke-linecap:round; stroke-linejoin:round;">
<path d="M5905 17716
L5905 5905
" />
<path d="M11811 17716
L5905 17716
" />
<path d="M11811 5905
L11811 17716
" />
<path d="M5905 5905
L11811 5905
" />
</g>
<g style="fill:#000000; fill-opacity:0.0; 
stroke:#000000; stroke-width:47.2441; stroke-opacity:1; 
stroke-linecap:round; stroke-linejoin:round;">
<path d="M8444 10413
L6102 10413
" />
<path d="M6102 10413
L6102 14389
" />
<path d="M6102 14389
L8444 14389
" />
<path d="M8444 14389
L8444 10413
" />
<path d="M8444 11712
L8149 11712
" />
<path d="M8149 11712
L8149 13090
" />
<path d="M8149 13090
L8444 13090
" />
<path d="M8444 13090
L8444 11712
" />
<path d="M8444 10413
L8149 10413
" />
<path d="M8149 10413
L8149 11122
" />
<path d="M8149 11122
L8444 11122
" />
<path d="M8444 11122
L8444 10413
" />
<path d="M8444 13681
L8149 13681
" />
<path d="M8149 13681
L8149 14389
" />
<path d="M8149 14389
L8444 14389
" />
<path d="M8444 14389
L8444 13681
" />
<path d="M7559 10413
L7559 10708
" />
<path d="M7559 10708
L6397 10708
" />
<path d="M6397 10708
L6397 12401
" />
<path d="M7559 14389
L7559 14094
" />
<path d="M7559 14094
L6397 14094
" />
<path d="M6397 14094
L6397 12401
" />
<path d="M8562 11279
L8562 10295
" />
<path d="M8562 10295
L7578 10295
" />
<path d="M9271 14389
L11614 14389
" />
<path d="M11614 14389
L11614 10413
" />
<path d="M11614 10413
L9271 10413
" />
<path d="M9271 10413
L9271 14389
" />
<path d="M9271 13090
L9566 13090
" />
<path d="M9566 13090
L9566 11712
" />
<path d="M9566 11712
L9271 11712
" />
<path d="M9271 11712
L9271 13090
" />
<path d="M9271 14389
L9566 14389
" />
<path d="M9566 14389
L9566 13681
" />
<path d="M9566 13681
L9271 13681
" />
<path d="M9271 13681
L9271 14389
" />
<path d="M9271 11122
L9566 11122
" />
<path d="M9566 11122
L9566 10413
" />
<path d="M9566 10413
L9271 10413
" />
<path d="M9271 10413
L9271 11122
" />
<path d="M10157 14389
L10157 14094
" />
<path d="M10157 14094
L11318 14094
" />
<path d="M11318 14094
L11318 12401
" />
<path d="M10157 10413
L10157 10708
" />
<path d="M10157 10708
L11318 10708
" />
<path d="M11318 10708
L11318 12401
" />
<path d="M9153 13523
L9153 14507
" />
<path d="M9153 14507
L10137 14507
" />
</g>
<g style="fill:#000000; fill-opacity:0.0; 
stroke:#000000; stroke-width:59.0551; stroke-opacity:1; 
stroke-linecap:round; stroke-linejoin:round;">
<path d="M7349 14745
L7349 15026
L7330 15082
L7292 15119
L7236 15138
L7199 15138
" />
<path d="M7742 15138
L7517 15138
" />
<path d="M7630 15138
L7630 14745
L7592 14801
L7555 14838
L7517 14857
" />
<path d="M10104 14745
L10104 15026
L10086 15082
L10048 15119
L9992 15138
L9955 15138
" />
<path d="M10273 14782
L10292 14763
L10329 14745
L10423 14745
L10461 14763
L10479 14782
L10498 14820
L10498 14857
L10479 14913
L10254 15138
L10498 15138
" />
</g> 
</svg>
