<?xml version="1.0" standalone="no"?>
 <!DOCTYPE svg PUBLIC "-//W3C//DTD SVG 1.1//EN" 
 "http://www.w3.org/Graphics/SVG/1.1/DTD/svg11.dtd"> 
<svg xmlns="http://www.w3.org/2000/svg" version="1.1" 
    width="29.7002cm" height="21.0007cm" viewBox="0 0 116930 82680 ">
<title>SVG Picture created as addressable_led_board_V1.0-B.Cu.svg date 2018/12/14 23:45:55 </title>
  <desc>Picture generated by PCBNEW </desc>
<g style="fill:#000000; fill-opacity:1;stroke:#000000; stroke-opacity:1;
stroke-linecap:round; stroke-linejoin:round; "
 transform="translate(0 0) scale(1 1)">
</g>
<g style="fill:#000000; fill-opacity:0.0; 
stroke:#000000; stroke-width:-0.000393701; stroke-opacity:1; 
stroke-linecap:round; stroke-linejoin:round;">
</g>
<g style="fill:#000000; fill-opacity:0.0; 
stroke:#000000; stroke-width:59.0551; stroke-opacity:1; 
stroke-linecap:round; stroke-linejoin:round;">
<path d="M5905 17716
L5905 5905
" />
<path d="M11811 17716
L5905 17716
" />
<path d="M11811 5905
L11811 17716
" />
<path d="M5905 5905
L11811 5905
" />
</g>
<g style="fill:#000000; fill-opacity:1.0; 
stroke:#000000; stroke-width:0; stroke-opacity:1; 
stroke-linecap:round; stroke-linejoin:round;">
<circle cx="8858.27" cy="16141.7" r="1102.36" /> 
</g>
<g style="fill:#000000; fill-opacity:1.0; 
stroke:#000000; stroke-width:39.3701; stroke-opacity:1; 
stroke-linecap:round; stroke-linejoin:round;">
</g>
<g style="fill:#000000; fill-opacity:1.0; 
stroke:#000000; stroke-width:0; stroke-opacity:1; 
stroke-linecap:round; stroke-linejoin:round;">
<polyline style="fill-rule:evenodd;"
points="8070,8907
8070,8415
8661,8415
8661,8907
8070,8907
" /> 
<polyline style="fill-rule:evenodd;"
points="9055,8907
9055,8415
9645,8415
9645,8907
9055,8907
" /> 
<polyline style="fill-rule:evenodd;"
points="7135,11072
7824,11072
7824,11761
7135,11761
7135,11072
" /> 
<circle cx="7480.31" cy="12401.6" r="344.488" /> 
</g>
<g style="fill:#000000; fill-opacity:1.0; 
stroke:#000000; stroke-width:39.3701; stroke-opacity:1; 
stroke-linecap:round; stroke-linejoin:round;">
</g>
<g style="fill:#000000; fill-opacity:1.0; 
stroke:#000000; stroke-width:0; stroke-opacity:1; 
stroke-linecap:round; stroke-linejoin:round;">
<circle cx="7480.31" cy="13385.8" r="344.488" /> 
</g>
<g style="fill:#000000; fill-opacity:1.0; 
stroke:#000000; stroke-width:39.3701; stroke-opacity:1; 
stroke-linecap:round; stroke-linejoin:round;">
</g>
<g style="fill:#000000; fill-opacity:1.0; 
stroke:#000000; stroke-width:0; stroke-opacity:1; 
stroke-linecap:round; stroke-linejoin:round;">
<polyline style="fill-rule:evenodd;"
points="10580,13730
9891,13730
9891,13041
10580,13041
10580,13730
" /> 
<circle cx="10236.2" cy="12401.6" r="344.488" /> 
</g>
<g style="fill:#000000; fill-opacity:1.0; 
stroke:#000000; stroke-width:39.3701; stroke-opacity:1; 
stroke-linecap:round; stroke-linejoin:round;">
</g>
<g style="fill:#000000; fill-opacity:1.0; 
stroke:#000000; stroke-width:0; stroke-opacity:1; 
stroke-linecap:round; stroke-linejoin:round;">
<circle cx="10236.2" cy="11417.3" r="344.488" /> 
</g>
<g style="fill:#000000; fill-opacity:1.0; 
stroke:#000000; stroke-width:39.3701; stroke-opacity:1; 
stroke-linecap:round; stroke-linejoin:round;">
</g>
<g style="fill:#000000; fill-opacity:1.0; 
stroke:#000000; stroke-width:0; stroke-opacity:1; 
stroke-linecap:round; stroke-linejoin:round;">
<polyline style="fill-rule:evenodd;"
points="9527,6653
9527,6259
10314,6259
10314,6653
9527,6653
" /> 
<polyline style="fill-rule:evenodd;"
points="9527,7913
9527,7519
10314,7519
10314,7913
9527,7913
" /> 
<polyline style="fill-rule:evenodd;"
points="7401,7913
7401,7519
8188,7519
8188,7913
7401,7913
" /> 
<polyline style="fill-rule:evenodd;"
points="7401,6653
7401,6259
8188,6259
8188,6653
7401,6653
" /> 
<circle cx="7795.28" cy="8366.14" r="118.11" /> 
</g>
<g style="fill:#000000; fill-opacity:1.0; 
stroke:#000000; stroke-width:39.3701; stroke-opacity:1; 
stroke-linecap:round; stroke-linejoin:round;">
</g>
<g style="fill:#000000; fill-opacity:1.0; 
stroke:#000000; stroke-width:295.276; stroke-opacity:1; 
stroke-linecap:round; stroke-linejoin:round;">
</g>
<g style="fill:#000000; fill-opacity:0.0; 
stroke:#000000; stroke-width:295.276; stroke-opacity:1; 
stroke-linecap:round; stroke-linejoin:round;">
<path d="M8366 8661
L8070 8661
" />
<path d="M7795 7716
L7795 8366
" />
<path d="M7795 8366
L7795 8385
" />
<path d="M7795 8385
L8070 8661
" />
</g>
<g style="fill:#000000; fill-opacity:0.0; 
stroke:#000000; stroke-width:196.85; stroke-opacity:1; 
stroke-linecap:round; stroke-linejoin:round;">
<path d="M10236 11417
L10236 8661
" />
<path d="M10472 7716
L9921 7716
" />
<path d="M10629 7874
L10472 7716
" />
<path d="M10629 8267
L10629 7874
" />
<path d="M10236 8661
L10629 8267
" />
<path d="M7480 11417
L7480 10039
" />
<path d="M7322 6456
L7795 6456
" />
<path d="M6889 6889
L7322 6456
" />
<path d="M6889 9448
L6889 6889
" />
<path d="M7480 10039
L6889 9448
" />
</g>
<g style="fill:#000000; fill-opacity:1.0; 
stroke:#000000; stroke-width:100; stroke-opacity:1; 
stroke-linecap:round; stroke-linejoin:round;">
<polyline style="fill-rule:evenodd;"
points="7100,6186
7100,6186
7071,6205
7052,6234
6667,6619
6638,6638
6619,6667
6619,6667
6561,6753
6534,6889
6541,6924
6541,9414
6534,9448
6541,9483
6541,9483
6561,9584
6638,9700
6667,9719
7131,10183
7131,10818
7038,10837
6955,10892
6900,10975
6880,11072
6880,11761
6900,11859
6955,11942
7032,11993
7017,12009
7062,12054
6962,12086
6881,12309
6891,12545
6962,12716
7062,12748
7409,12401
7404,12396
7474,12325
7480,12330
7485,12325
7556,12396
7551,12401
7898,12748
7998,12716
8079,12493
8069,12257
7998,12086
7898,12054
7943,12009
7928,11993
8005,11942
8060,11859
8079,11761
8079,11072
8060,10975
8005,10892
7922,10837
7828,10818
7828,10073
7835,10039
7828,10005
7828,10005
7808,9903
7731,9788
7702,9768
7238,9304
7238,8104
7304,8148
7397,8167
7397,8326
7397,8326
7397,8346
7389,8385
7397,8424
7397,8424
7420,8540
7508,8672
7541,8694
7762,8914
7784,8948
7817,8970
7817,8970
7830,8978
7835,9005
7890,9087
7973,9142
8070,9162
8661,9162
8758,9142
8841,9087
8857,9063
8913,9119
9005,9157
9237,9157
9300,9094
9300,8711
9292,8711
9292,8611
9300,8611
9300,8227
9237,8165
9005,8165
8913,8203
8857,8259
8841,8235
8758,8179
8661,8160
8228,8160
8286,8148
8369,8093
8424,8010
8443,7913
8443,7519
9272,7519
9272,7913
9292,8010
9347,8093
9430,8148
9512,8165
9462,8165
9400,8227
9400,8611
9408,8611
9408,8711
9400,8711
9400,9094
9462,9157
9695,9157
9787,9119
9857,9049
9887,8976
9887,10925
9732,11080
9641,11299
9641,11535
9732,11754
9899,11921
9908,11924
9888,11983
10236,12330
10583,11983
10564,11924
10572,11921
10740,11754
10830,11535
10830,11299
10740,11080
10584,10925
10584,8805
10852,8538
10881,8518
10934,8439
10958,8403
10965,8365
10978,8302
10978,8302
10985,8267
10978,8233
10978,7908
10985,7874
10978,7839
10978,7839
10958,7738
10881,7622
10852,7603
10743,7494
10723,7465
10608,7388
10515,7369
10495,7339
10412,7284
10314,7264
9527,7264
9430,7284
9347,7339
9292,7422
9272,7519
8443,7519
8424,7422
8369,7339
8286,7284
8188,7264
7401,7264
7304,7284
7238,7328
7238,7034
7370,6902
7401,6908
8188,6908
8286,6889
8369,6833
8424,6751
8443,6653
8443,6569
9277,6569
9277,6703
9315,6795
9385,6865
9477,6903
9808,6903
9871,6841
9871,6506
9971,6506
9971,6841
10033,6903
10364,6903
10456,6865
10526,6795
10564,6703
10564,6569
10502,6506
9971,6506
9871,6506
9340,6506
9277,6569
8443,6569
8443,6259
8428,6185
9287,6185
9277,6210
9277,6344
9340,6406
9871,6406
9871,6398
9971,6398
9971,6406
10502,6406
10564,6344
10564,6210
10554,6185
11531,6185
11531,17437
9265,17437
9624,17288
10004,16907
10210,16410
10210,15872
10004,15375
9624,14995
9127,14789
8589,14789
8092,14995
7711,15375
7505,15872
7505,16410
7711,16907
8092,17288
8451,17437
6185,17437
6185,13267
6885,13267
6885,13504
6976,13722
7143,13889
7362,13980
7598,13980
7817,13889
7984,13722
8074,13504
8074,13267
7984,13049
7976,13041
9636,13041
9636,13730
9656,13827
9711,13910
9794,13965
9891,13985
10580,13985
10678,13965
10760,13910
10816,13827
10835,13730
10835,13041
10816,12943
10760,12861
10683,12809
10699,12794
10654,12748
10754,12716
10835,12493
10825,12257
10754,12086
10654,12054
10306,12401
10312,12407
10241,12477
10236,12472
10230,12477
10159,12407
10165,12401
9818,12054
9718,12086
9637,12309
9647,12545
9718,12716
9818,12748
9772,12794
9788,12809
9711,12861
9656,12943
9636,13041
7976,13041
7817,12881
7808,12878
7827,12819
7480,12472
7132,12819
7152,12878
7143,12881
6976,13049
6885,13267
6185,13267
6185,6185
7102,6185
7100,6186
" /> 
</g> 
</svg>
