<?xml version="1.0" standalone="no"?>
 <!DOCTYPE svg PUBLIC "-//W3C//DTD SVG 1.1//EN" 
 "http://www.w3.org/Graphics/SVG/1.1/DTD/svg11.dtd"> 
<svg xmlns="http://www.w3.org/2000/svg" version="1.1" 
    width="29.7002cm" height="21.0007cm" viewBox="0 0 116930 82680 ">
<title>SVG Picture created as addressable_led_board_V1.0-F.Cu.svg date 2018/12/14 23:45:55 </title>
  <desc>Picture generated by PCBNEW </desc>
<g style="fill:#000000; fill-opacity:1;stroke:#000000; stroke-opacity:1;
stroke-linecap:round; stroke-linejoin:round; "
 transform="translate(0 0) scale(1 1)">
</g>
<g style="fill:#000000; fill-opacity:0.0; 
stroke:#000000; stroke-width:-0.000393701; stroke-opacity:1; 
stroke-linecap:round; stroke-linejoin:round;">
</g>
<g style="fill:#000000; fill-opacity:0.0; 
stroke:#000000; stroke-width:59.0551; stroke-opacity:1; 
stroke-linecap:round; stroke-linejoin:round;">
<path d="M5905 17716
L5905 5905
" />
<path d="M11811 17716
L5905 17716
" />
<path d="M11811 5905
L11811 17716
" />
<path d="M5905 5905
L11811 5905
" />
</g>
<g style="fill:#000000; fill-opacity:1.0; 
stroke:#000000; stroke-width:0; stroke-opacity:1; 
stroke-linecap:round; stroke-linejoin:round;">
<circle cx="8858.27" cy="16141.7" r="1102.36" /> 
</g>
<g style="fill:#000000; fill-opacity:1.0; 
stroke:#000000; stroke-width:39.3701; stroke-opacity:1; 
stroke-linecap:round; stroke-linejoin:round;">
</g>
<g style="fill:#000000; fill-opacity:1.0; 
stroke:#000000; stroke-width:0; stroke-opacity:1; 
stroke-linecap:round; stroke-linejoin:round;">
<polyline style="fill-rule:evenodd;"
points="7135,11072
7824,11072
7824,11761
7135,11761
7135,11072
" /> 
<circle cx="7480.31" cy="12401.6" r="344.488" /> 
</g>
<g style="fill:#000000; fill-opacity:1.0; 
stroke:#000000; stroke-width:39.3701; stroke-opacity:1; 
stroke-linecap:round; stroke-linejoin:round;">
</g>
<g style="fill:#000000; fill-opacity:1.0; 
stroke:#000000; stroke-width:0; stroke-opacity:1; 
stroke-linecap:round; stroke-linejoin:round;">
<circle cx="7480.31" cy="13385.8" r="344.488" /> 
</g>
<g style="fill:#000000; fill-opacity:1.0; 
stroke:#000000; stroke-width:39.3701; stroke-opacity:1; 
stroke-linecap:round; stroke-linejoin:round;">
</g>
<g style="fill:#000000; fill-opacity:1.0; 
stroke:#000000; stroke-width:0; stroke-opacity:1; 
stroke-linecap:round; stroke-linejoin:round;">
<polyline style="fill-rule:evenodd;"
points="10580,13730
9891,13730
9891,13041
10580,13041
10580,13730
" /> 
<circle cx="10236.2" cy="12401.6" r="344.488" /> 
</g>
<g style="fill:#000000; fill-opacity:1.0; 
stroke:#000000; stroke-width:39.3701; stroke-opacity:1; 
stroke-linecap:round; stroke-linejoin:round;">
</g>
<g style="fill:#000000; fill-opacity:1.0; 
stroke:#000000; stroke-width:0; stroke-opacity:1; 
stroke-linecap:round; stroke-linejoin:round;">
<circle cx="10236.2" cy="11417.3" r="344.488" /> 
</g>
<g style="fill:#000000; fill-opacity:1.0; 
stroke:#000000; stroke-width:39.3701; stroke-opacity:1; 
stroke-linecap:round; stroke-linejoin:round;">
</g>
<g style="fill:#000000; fill-opacity:1.0; 
stroke:#000000; stroke-width:0; stroke-opacity:1; 
stroke-linecap:round; stroke-linejoin:round;">
<circle cx="7795.28" cy="8366.14" r="118.11" /> 
</g>
<g style="fill:#000000; fill-opacity:1.0; 
stroke:#000000; stroke-width:39.3701; stroke-opacity:1; 
stroke-linecap:round; stroke-linejoin:round;">
</g>
<g style="fill:#000000; fill-opacity:1.0; 
stroke:#000000; stroke-width:295.276; stroke-opacity:1; 
stroke-linecap:round; stroke-linejoin:round;">
</g>
<g style="fill:#000000; fill-opacity:0.0; 
stroke:#000000; stroke-width:295.276; stroke-opacity:1; 
stroke-linecap:round; stroke-linejoin:round;">
<path d="M7795 8366
L7775 8366
" />
</g>
<g style="fill:#000000; fill-opacity:1.0; 
stroke:#000000; stroke-width:100; stroke-opacity:1; 
stroke-linecap:round; stroke-linejoin:round;">
<polyline style="fill-rule:evenodd;"
points="11531,17437
9265,17437
9624,17288
10004,16907
10210,16410
10210,15872
10004,15375
9624,14995
9127,14789
8589,14789
8092,14995
7711,15375
7505,15872
7505,16410
7711,16907
8092,17288
8451,17437
6185,17437
6185,13803
7132,13803
7165,13903
7387,13984
7624,13974
7794,13903
7827,13803
7480,13456
7132,13803
6185,13803
6185,13293
6881,13293
6891,13529
6962,13700
7062,13733
7409,13385
7551,13385
7898,13733
7998,13700
8072,13498
9641,13498
9641,13780
9679,13871
9750,13942
9842,13980
10123,13980
10186,13917
10186,13435
10286,13435
10286,13917
10348,13980
10630,13980
10722,13942
10792,13871
10830,13780
10830,13498
10768,13435
10286,13435
10186,13435
9704,13435
9641,13498
8072,13498
8079,13478
8069,13241
7998,13071
7898,13038
7551,13385
7409,13385
7062,13038
6962,13071
6881,13293
6185,13293
6185,11072
6880,11072
6880,11761
6900,11859
6955,11942
7038,11997
7042,11998
6976,12064
6885,12283
6885,12519
6976,12738
7143,12905
7152,12909
7132,12967
7480,13315
7827,12967
7808,12909
7817,12905
7984,12738
8074,12519
8074,12283
7984,12064
7917,11998
7922,11997
8005,11942
8060,11859
8079,11761
8079,11299
9641,11299
9641,11535
9732,11754
9887,11909
9732,12064
9641,12283
9641,12519
9732,12738
9801,12807
9750,12829
9679,12899
9641,12991
9641,13273
9704,13335
10186,13335
10186,13327
10286,13327
10286,13335
10768,13335
10830,13273
10830,12991
10792,12899
10722,12829
10670,12807
10740,12738
10830,12519
10830,12283
10740,12064
10584,11909
10740,11754
10830,11535
10830,11299
10740,11080
10572,10913
10354,10822
10117,10822
9899,10913
9732,11080
9641,11299
8079,11299
8079,11072
8060,10975
8005,10892
7922,10837
7824,10817
7135,10817
7038,10837
6955,10892
6900,10975
6880,11072
6185,11072
6185,6185
11531,6185
11531,17437
" /> 
</g> 
</svg>
